<svg width="25" height="25" viewBox="0 0 25 25" fill="none" xmlns="http://www.w3.org/2000/svg">
<path d="M5.20831 7.29163H19.5729C19.864 7.29164 20.1518 7.35264 20.4178 7.47069C20.6839 7.58875 20.9222 7.76125 21.1175 7.97706C21.3128 8.19287 21.4607 8.44721 21.5517 8.72369C21.6427 9.00016 21.6748 9.29263 21.6458 9.58225L21.0208 15.8323C20.9694 16.3463 20.7288 16.823 20.3458 17.1696C19.9627 17.5163 19.4645 17.7083 18.9479 17.7083H8.99998C8.51818 17.7085 8.05121 17.5417 7.67857 17.2363C7.30593 16.9309 7.05066 16.5057 6.95623 16.0333L5.20831 7.29163Z" stroke="black" stroke-width="2" stroke-linejoin="round"/>
<path d="M5.20831 7.29167L4.36456 3.91354C4.30813 3.68828 4.17805 3.48834 3.99499 3.34547C3.81192 3.20261 3.58636 3.12501 3.35415 3.125H2.08331M8.33331 21.875H10.4166M16.6666 21.875H18.75" stroke="black" stroke-width="2" stroke-linecap="round" stroke-linejoin="round"/>
</svg>
