<svg width="32" height="32" viewBox="0 0 32 32" fill="none" xmlns="http://www.w3.org/2000/svg">
<rect width="32" height="32" fill="white"/>
<path d="M27.7606 2H4.3925C3.11562 2 2 2.91875 2 4.18062V27.6C2 28.8694 3.11562 30 4.3925 30H27.7537C29.0375 30 30 28.8625 30 27.6006V4.18062C30.0075 2.91875 29.0375 2 27.7606 2ZM17.375 24.1875H10.895L8.29688 8.6525L13.9688 8.11375L15.3438 19.1681C16.6269 17.0775 18.2113 13.7931 18.2113 11.5513C18.2113 10.325 18.0012 9.48875 17.6731 8.80125L22.8375 7.75625C23.435 8.7425 23.7038 9.75625 23.7038 11.0419C23.7031 15.1356 20.2088 20.4537 17.375 24.1875Z" fill="#FC6736"/>
</svg>
