<svg width="25" height="25" viewBox="0 0 25 25" fill="none" xmlns="http://www.w3.org/2000/svg">
<path d="M16.1458 14.5834H15.3229L15.0312 14.3021C15.6822 13.5458 16.158 12.655 16.4245 11.6934C16.691 10.7318 16.7417 9.72311 16.5729 8.73962C16.0833 5.84378 13.6666 3.53128 10.75 3.17712C9.72457 3.04739 8.68309 3.15396 7.70521 3.48867C6.72733 3.82337 5.83898 4.37735 5.10813 5.10819C4.37729 5.83904 3.82331 6.72739 3.48861 7.70527C3.1539 8.68315 3.04733 9.72463 3.17706 10.75C3.53122 13.6667 5.84372 16.0834 8.73956 16.573C9.72305 16.7418 10.7317 16.6911 11.6933 16.4246C12.6549 16.158 13.5458 15.6823 14.3021 15.0313L14.5833 15.323V16.1459L19.0104 20.573C19.4375 21 20.1354 21 20.5625 20.573C20.9896 20.1459 20.9896 19.448 20.5625 19.0209L16.1458 14.5834ZM9.89581 14.5834C7.30206 14.5834 5.20831 12.4896 5.20831 9.89587C5.20831 7.30212 7.30206 5.20837 9.89581 5.20837C12.4896 5.20837 14.5833 7.30212 14.5833 9.89587C14.5833 12.4896 12.4896 14.5834 9.89581 14.5834Z" fill="black"/>
</svg>
